# xmcd
#
# Track frame offsets:
#	150
#	3662
#	23833
#	42721
#	66176
#	88700
#	107118
#	127027
#	144187
#	163737
#	184661
#	203003
#	224489
#	246069
#
# Disc length: 3569 seconds
#
# Revision: 1
# Processed by: cddbd v1.5.1PL0 Copyright (c) Steve Scherf et al.
# Submitted via: CDex 1.50Beta5
#
DISCID=ca0def0e
DTITLE=RIP SLYME - FIVE
DYEAR=2001
DGENRE=Rock
TTITLE0=RS5
TTITLE1=STEPPER’S DELIGHT
TTITLE2=FRESH
TTITLE3=運命共同体
TTITLE4=ジャッジメント(feat.BLACK BOTTOM BRASS BAND&KYON)
TTITLE5=Bushman
TTITLE6=光る音(feat.YO-KING)
TTITLE7=Talk to me
TTITLE8=雑念エンタテインメント
TTITLE9=BLOSSOM
TTITLE10=(I could have)Danced all night
TTITLE11=Freak Show(feat.MELLOW YELLOW)
TTITLE12=R-E-M
TTITLE13=マタ逢ウ日マデ
EXTD=
EXTT0=
EXTT1=
EXTT2=
EXTT3=
EXTT4=
EXTT5=
EXTT6=
EXTT7=
EXTT8=
EXTT9=
EXTT10=
EXTT11=
EXTT12=
EXTT13=
PLAYORDER=
